<svg xmlns="http://www.w3.org/2000/svg" width="400" height="600" viewBox="0 0 400 600"><rect width="100%" height="100%" fill="#DDDDDD"/><path fill="#999999" d="M102.585 328.785h15.5q4.28 0 7.19-1.03 2.9-1.02 4.64-2.73t2.51-3.99.77-4.85q0-2.68-.86-4.81-.85-2.14-2.67-3.65-1.83-1.51-4.71-2.31t-6.92-.8h-15.45zm13.05-58.6h-13.05v23.83h12.2q7.86 0 11.88-2.85t4.02-9.06q0-6.44-3.65-9.18-3.64-2.74-11.4-2.74m-28.38-11.85h28.38q8.1 0 13.85 1.54 5.76 1.54 9.44 4.39 3.67 2.85 5.38 6.89 1.71 4.05 1.71 9.12 0 2.91-.85 5.56-.86 2.65-2.65 4.96-1.8 2.31-4.56 4.19-2.77 1.88-6.58 3.19 16.98 3.82 16.98 18.35 0 5.25-1.99 9.69-2 4.45-5.82 7.67t-9.4 5.05q-5.59 1.82-12.77 1.82h-31.12zm98.72 23.03q6.5 0 11.83 2.1 5.33 2.11 9.12 5.99t5.84 9.46q2.05 5.59 2.05 12.48 0 6.96-2.05 12.54-2.05 5.59-5.84 9.52-3.79 3.94-9.12 6.05-5.33 2.1-11.83 2.1-6.55 0-11.91-2.1-5.36-2.11-9.15-6.05-3.79-3.93-5.87-9.52-2.08-5.58-2.08-12.54 0-6.89 2.08-12.48 2.08-5.58 5.87-9.46t9.15-5.99q5.36-2.1 11.91-2.1m0 49.42q7.3 0 10.8-4.91 3.51-4.9 3.51-14.36t-3.51-14.42q-3.5-4.96-10.8-4.96-7.41 0-10.97 4.99-3.56 4.98-3.56 14.39 0 9.4 3.56 14.33 3.56 4.94 10.97 4.94m52.04-44.98.86 6.61q2.73-5.24 6.5-8.23 3.76-3 8.89-3 4.04 0 6.5 1.77l-.92 10.55q-.28 1.02-.82 1.45t-1.46.43q-.85 0-2.53-.29-1.68-.28-3.28-.28-2.34 0-4.16.68-1.83.69-3.28 1.97t-2.56 3.1q-1.12 1.83-2.08 4.17v36.02h-14.08v-58.48h8.26q2.17 0 3.02.77.86.77 1.14 2.76m60.99 39.84v-9.86q-6.1.29-10.26 1.06t-6.67 1.96q-2.5 1.2-3.59 2.8-1.08 1.59-1.08 3.47 0 3.71 2.19 5.31 2.2 1.59 5.73 1.59 4.33 0 7.5-1.57 3.16-1.56 6.18-4.76m-29.75-30.72-2.51-4.5q10.09-9.24 24.28-9.24 5.13 0 9.18 1.69 4.05 1.68 6.84 4.67t4.25 7.15q1.45 4.16 1.45 9.12v36.94h-6.38q-2 0-3.08-.6-1.09-.6-1.71-2.42l-1.26-4.22q-2.22 2-4.33 3.51t-4.39 2.53q-2.28 1.03-4.87 1.57t-5.73.54q-3.7 0-6.84-1-3.13-.99-5.41-2.99-2.28-1.99-3.54-4.96-1.25-2.96-1.25-6.89 0-2.23.74-4.42.74-2.2 2.42-4.19 1.68-2 4.36-3.76 2.68-1.77 6.59-3.08 3.9-1.31 9.09-2.14 5.18-.82 11.85-1v-3.42q0-5.87-2.51-8.69-2.5-2.82-7.23-2.82-3.42 0-5.68.8-2.25.8-3.96 1.79-1.71 1-3.1 1.8-1.4.8-3.11.8-1.48 0-2.51-.77-1.02-.77-1.65-1.8"/></svg>